# xmcd
#
# Track frame offsets: 
#        150
#        14870
#        30650
#        61467
#        85005
#
# Disc length: 1445 seconds
#
# Revision: 1
# Processed by: cddbd v1.5.2PL0 Copyright (c) Steve Scherf et al.
# Submitted via: ExactAudioCopyFreeDBPlugin 1.0
#
DISCID=3a05a305
DTITLE=Dannii Minogue - Begin To Spin Me Round
DYEAR=03
DGENRE=
TTITLE0=Dannii Minogue vs. Dead Or Alive - Begin To Spin Me Round
TTITLE1=I Begin To Wonder
TTITLE2=I Begin To Wonder (Extended Original)
TTITLE3=I Begin To Wonder (Krystal K Vocal Mix - CD Edit)
TTITLE4=Dannii Minogue vs. Dead Or Alive - Begin To Spin Me Round (Ext
TTITLE4=ended Version)
EXTD=
EXTT0=
EXTT1=
EXTT2=
EXTT3=
EXTT4=
PLAYORDER=
